# xmcd
#
# Track frame offsets:
#	182
#	17200
#	32432
#	44547
#	57877
#	79037
#	96290
#	116347
#	131357
#	148380
#
# Disc length: 2108 seconds
#
# Revision: 0
# Processed by: cddbd v1.5.1PL0 Copyright (c) Steve Scherf et al.
# Submitted via: audiograbber 1.83.01
#
DISCID=82083a0a
DTITLE=The Delta Wires - The Delta Wires
DYEAR=1900
DGENRE=Blues
TTITLE0=Back in Town
TTITLE1=Fixin' Mechanic
TTITLE2=Weary Man
TTITLE3=Big Leg Woman
TTITLE4=Why Did You Leave?
TTITLE5=Tippin' Into the Blues
TTITLE6=Travelin'
TTITLE7=Bridge Burner
TTITLE8=Smack Dab in the Middle
TTITLE9=How Many More Times
EXTD=
EXTT0=
EXTT1=
EXTT2=
EXTT3=
EXTT4=
EXTT5=
EXTT6=
EXTT7=
EXTT8=
EXTT9=
PLAYORDER=
